<?xml version="1.0" encoding="UTF-8"?>
<svg width="36px" height="36px" viewBox="0 0 36 36" version="1.1" xmlns="http://www.w3.org/2000/svg" xmlns:xlink="http://www.w3.org/1999/xlink">
    <title>Elevo logo 黑色底</title>
    <defs>
        <linearGradient x1="50%" y1="0%" x2="50%" y2="100%" id="linearGradient-1">
            <stop stop-color="#2D2D2D" offset="0%"></stop>
            <stop stop-color="#161616" offset="100%"></stop>
        </linearGradient>
        <rect id="path-2" x="-5" y="-9" width="36" height="36"></rect>
        <filter x="-1.7%" y="-1.7%" width="103.3%" height="103.3%" filterUnits="objectBoundingBox" id="filter-3">
            <feMorphology radius="0.1" operator="erode" in="SourceAlpha" result="shadowSpreadInner1"></feMorphology>
            <feGaussianBlur stdDeviation="0.05" in="shadowSpreadInner1" result="shadowBlurInner1"></feGaussianBlur>
            <feOffset dx="0" dy="1" in="shadowBlurInner1" result="shadowOffsetInner1"></feOffset>
            <feComposite in="shadowOffsetInner1" in2="SourceAlpha" operator="arithmetic" k2="-1" k3="1" result="shadowInnerInner1"></feComposite>
            <feColorMatrix values="0 0 0 0 1   0 0 0 0 1   0 0 0 0 1  0 0 0 0.25 0" type="matrix" in="shadowInnerInner1"></feColorMatrix>
        </filter>
        <linearGradient x1="19.5585078%" y1="60.7477279%" x2="78.3837478%" y2="53.9981186%" id="linearGradient-4">
            <stop stop-color="#FFFFFF" offset="0%"></stop>
            <stop stop-color="#FFFFFF" stop-opacity="0.6" offset="100%"></stop>
        </linearGradient>
        <linearGradient x1="1.29890186e-12%" y1="50%" x2="92.5219025%" y2="42.5737597%" id="linearGradient-5">
            <stop stop-color="#FFFFFF" offset="0%"></stop>
            <stop stop-color="#FFFFFF" stop-opacity="0.5" offset="100%"></stop>
        </linearGradient>
        <linearGradient x1="19.5585078%" y1="60.7477279%" x2="78.3837478%" y2="53.9981186%" id="linearGradient-6">
            <stop stop-color="#FFFFFF" offset="0%"></stop>
            <stop stop-color="#FFFFFF" stop-opacity="0.5" offset="100%"></stop>
        </linearGradient>
    </defs>
    <g id="页面-1" stroke="none" stroke-width="1" fill="none" fill-rule="evenodd">
        <g id="Elevo-logo-黑色底" transform="translate(5, 9)">
            <g id="矩形-2">
                <use fill="url(#linearGradient-1)" fill-rule="evenodd" xlink:href="#path-2"></use>
                <use fill="black" fill-opacity="1" filter="url(#filter-3)" xlink:href="#path-2"></use>
            </g>
            <g id="Logo-new" transform="translate(1, -1)">
                <g id="编组" transform="translate(5.9678, 0.3323)">
                    <path d="M5.07191212,0.573678714 L5.24401756,0.709722518 L5.38822721,0.816897757 L5.23023224,0.702832541 L5.27216529,0.735730251 C5.6690672,1.03881902 6.08876093,1.31330282 6.42155077,1.54431613 L6.58019585,1.65613142 C8.34964076,2.92749844 9.09647327,3.21433168 11.1212083,5.18984559 L11.192927,5.23958645 L11.2713595,5.31313522 L11.2998305,5.33803626 L11.1524329,5.22976792 C9.35628231,3.96570227 6.94103847,4.005372 5.00583325,5.30552608 C3.75649403,6.32474939 1.95012004,6.31316337 0.843758557,5.23382547 C-0.331271344,4.08749642 -0.271736973,2.1708496 0.976732297,0.952874989 C2.12643378,-0.168744299 3.88346919,-0.306730974 5.07191212,0.573678714 Z" id="路径" fill="url(#linearGradient-4)"></path>
                    <path d="M11.586883,0.718082878 C12.834592,-0.267392217 14.6135659,-0.244353008 15.7077954,0.823149217 C16.8828253,1.96947827 16.8232909,3.88612508 15.5748217,5.10409969 C14.3429986,6.30583465 12.4139811,6.3783995 11.234107,5.27903638 L11.192927,5.23958645 L11.1212083,5.18984559 C9.09647327,3.21433168 8.34964076,2.92749844 6.58019585,1.65613142 C6.17916282,1.36798447 5.59113154,0.998152046 5.07612151,0.58187094 C6.86836594,2.04685807 9.47119316,2.09525458 11.5008234,0.775294089 L11.586883,0.718082878 Z" id="路径" fill="url(#linearGradient-5)"></path>
                </g>
                <g id="编组备份-10" transform="translate(5.9678, 13.6446)">
                    <path d="M5.07191212,0.573678714 L5.24401756,0.709722518 L5.38822721,0.816897757 L5.23023224,0.702832541 L5.27216529,0.735730251 C5.6690672,1.03881902 6.08876093,1.31330282 6.42155077,1.54431613 L6.58019585,1.65613142 C8.34964076,2.92749844 9.09647327,3.21433168 11.1212083,5.18984559 L11.192927,5.23958645 L11.2713595,5.31313522 L11.2998305,5.33803626 L11.1524329,5.22976792 C9.35628231,3.96570227 6.94103847,4.005372 5.00583325,5.30552608 C3.75649403,6.32474939 1.95012004,6.31316337 0.843758557,5.23382547 C-0.331271344,4.08749642 -0.271736973,2.1708496 0.976732297,0.952874989 C2.12643378,-0.168744299 3.88346919,-0.306730974 5.07191212,0.573678714 Z" id="路径" fill="url(#linearGradient-6)"></path>
                    <path d="M11.586883,0.718082878 C12.834592,-0.267392217 14.6135659,-0.244353008 15.7077954,0.823149217 C16.8828253,1.96947827 16.8232909,3.88612508 15.5748217,5.10409969 C14.3429986,6.30583465 12.4139811,6.3783995 11.234107,5.27903638 L11.192927,5.23958645 L11.1212083,5.18984559 C9.09647327,3.21433168 8.34964076,2.92749844 6.58019585,1.65613142 C6.17916282,1.36798447 5.59113154,0.998152046 5.07612151,0.58187094 C6.86836594,2.04685807 9.47119316,2.09525458 11.5008234,0.775294089 L11.586883,0.718082878 Z" id="路径" fill="url(#linearGradient-5)"></path>
                </g>
                <g id="编组备份-8" transform="translate(0, 6.9885)">
                    <path d="M5.07191212,0.573678714 L5.24401756,0.709722518 L5.38822721,0.816897757 L5.23023224,0.702832541 L5.27216529,0.735730251 C5.6690672,1.03881902 6.08876093,1.31330282 6.42155077,1.54431613 L6.58019585,1.65613142 C8.34964076,2.92749844 9.09647327,3.21433168 11.1212083,5.18984559 L11.192927,5.23958645 L11.2713595,5.31313522 L11.2998305,5.33803626 L11.1524329,5.22976792 C9.35628231,3.96570227 6.94103847,4.005372 5.00583325,5.30552608 C3.75649403,6.32474939 1.95012004,6.31316337 0.843758557,5.23382547 C-0.331271344,4.08749642 -0.271736973,2.1708496 0.976732297,0.952874989 C2.12643378,-0.168744299 3.88346919,-0.306730974 5.07191212,0.573678714 Z" id="路径" fill="url(#linearGradient-6)"></path>
                    <path d="M11.586883,0.718082878 C12.834592,-0.267392217 14.6135659,-0.244353008 15.7077954,0.823149217 C16.8828253,1.96947827 16.8232909,3.88612508 15.5748217,5.10409969 C14.3429986,6.30583465 12.4139811,6.3783995 11.234107,5.27903638 L11.192927,5.23958645 L11.1212083,5.18984559 C9.09647327,3.21433168 8.34964076,2.92749844 6.58019585,1.65613142 C6.17916282,1.36798447 5.59113154,0.998152046 5.07612151,0.58187094 C6.86836594,2.04685807 9.47119316,2.09525458 11.5008234,0.775294089 L11.586883,0.718082878 Z" id="路径" fill="url(#linearGradient-5)"></path>
                </g>
            </g>
        </g>
    </g>
</svg>