<?xml version="1.0" encoding="UTF-8"?>
<svg width="16px" height="16px" viewBox="0 0 16 16" version="1.1" xmlns="http://www.w3.org/2000/svg" xmlns:xlink="http://www.w3.org/1999/xlink">
    <title>Elevo logo 小图标</title>
    <g id="页面-1" stroke="none" stroke-width="1" fill="none" fill-rule="evenodd">
        <g id="Elevo-logo-小图标">
            <path d="M13,0 C14.6568542,-4.4408921e-16 16,1.34314575 16,3 L16,13 C16,14.6568542 14.6568542,16 13,16 L3,16 C1.34314575,16 0,14.6568542 0,13 L0,3 C0,1.34314575 1.34314575,0 3,0 L13,0 Z M7.57319192,9.87479888 C7.04499506,9.48350568 6.26409043,9.54483309 5.75311199,10.0433306 C5.19823676,10.5846526 5.17177704,11.4364956 5.69401255,11.9459752 C6.18572877,12.4256809 6.98856165,12.4308303 7.54382353,11.9778421 C8.40391473,11.3999959 9.47735644,11.3823649 10.2756456,11.9441719 L10.3411556,11.9922911 L10.3285019,11.981224 L10.324,11.977 L10.4268439,12.0611017 C10.9172229,12.4200788 11.6222893,12.3916673 12.1281414,11.9881034 L12.2411517,11.8883193 C12.7960269,11.3469973 12.8224867,10.4951542 12.3002511,9.98567466 C11.8139269,9.51122922 11.0232719,9.50098957 10.4687345,9.9389785 L10.4304858,9.96440571 C9.58149016,10.516546 8.50682987,10.5299714 7.71924548,9.98680958 L7.62100875,9.91224694 Z M9.64790907,7.02738284 C9.16158485,6.55293741 8.37092978,6.54269776 7.81639245,6.98068669 L7.77814375,7.0061139 C6.87608585,7.592763 5.71927375,7.57125345 4.92272067,6.92014805 L5.06143431,7.02460442 L5.00900875,6.98424694 L4.99000875,6.97024694 L4.92084983,6.91650706 C4.39265297,6.52521387 3.61174835,6.58654128 3.10076991,7.08503874 C2.54589468,7.62636079 2.51943496,8.47820382 3.04167047,8.9876834 C3.53338669,9.46738913 4.33621957,9.47253848 4.89148144,9.01955034 C5.75157265,8.44170408 6.82501436,8.42407309 7.62330353,8.98588004 L7.68881356,9.03399931 L7.66926213,9.01668393 C8.19446735,9.49596969 9.04468121,9.46086523 9.58880963,8.9300275 C10.1436849,8.38870545 10.1701446,7.53686242 9.64790907,7.02738284 Z M12.3002511,4.06909103 C11.8139269,3.5946456 11.0232719,3.58440595 10.4687345,4.02239488 L10.4304858,4.04782209 C9.58149016,4.59996242 8.50682987,4.61338781 7.71924548,4.07022596 L7.62100875,3.99524694 L7.57319192,3.95821525 C7.04499506,3.56692206 6.26409043,3.62824947 5.75311199,4.12674693 C5.19823676,4.66806898 5.17177704,5.51991201 5.69401255,6.02939159 C6.18572877,6.50909732 6.98856165,6.51424666 7.54382353,6.06125852 C8.40391473,5.48341227 9.47735644,5.46578128 10.2756456,6.02758823 L10.3411556,6.07570749 L10.3285019,6.06464037 L10.325,6.061 L10.4297375,6.14662995 C10.9200623,6.5034322 11.6234812,6.4742824 12.1283544,6.07134979 L12.2411517,5.97173569 C12.7960269,5.43041364 12.8224867,4.57857061 12.3002511,4.06909103 Z" id="形状结合" fill="#FFFFFF"></path>
            <g id="Logo-new" transform="translate(2.6667, 3.7032)">
                <g id="编组" transform="translate(2.6523, 0)"></g>
                <g id="编组备份-10" transform="translate(2.6523, 5.9166)"></g>
                <g id="编组备份-8" transform="translate(0, 2.9583)"></g>
            </g>
        </g>
    </g>
</svg>